<svg xmlns="http://www.w3.org/2000/svg" width="720" height="500" viewBox="0 0 720 500" font-family="Helvetica, Arial, sans-serif">
  <rect width="720" height="500" fill="#ffffff"/>
  <text x="360" y="22" text-anchor="middle" font-size="16" font-weight="bold" fill="#1a1a1a">
    Finite-Difference Greeks: Error vs. Bump Size h/S (log-log, N=200,000 paths)
  </text>
  <g stroke="#e0e0e0" stroke-width="1">
    <line x1="90" y1="417.5" x2="660" y2="417.5"/>
    <line x1="90" y1="355.0" x2="660" y2="355.0"/>
    <line x1="90" y1="292.5" x2="660" y2="292.5"/>
    <line x1="90" y1="230.0" x2="660" y2="230.0"/>
    <line x1="90" y1="167.5" x2="660" y2="167.5"/>
    <line x1="90" y1="105.0" x2="660" y2="105.0"/>
    <line x1="90" y1="42.5" x2="660" y2="42.5"/>
  </g>
  <g font-size="12" fill="#555555" text-anchor="end">
    <text x="84" y="421.5">10^-6</text>
    <text x="84" y="359.0">10^-5</text>
    <text x="84" y="296.5">10^-4</text>
    <text x="84" y="234.0">10^-3</text>
    <text x="84" y="171.5">10^-2</text>
    <text x="84" y="109.0">10^-1</text>
    <text x="84" y="46.5">10^0</text>
  </g>
  <g stroke="#e0e0e0" stroke-width="1">
    <line x1="90.0" y1="30" x2="90.0" y2="430"/>
    <line x1="185.0" y1="30" x2="185.0" y2="430"/>
    <line x1="280.0" y1="30" x2="280.0" y2="430"/>
    <line x1="375.0" y1="30" x2="375.0" y2="430"/>
    <line x1="470.0" y1="30" x2="470.0" y2="430"/>
    <line x1="565.0" y1="30" x2="565.0" y2="430"/>
    <line x1="660.0" y1="30" x2="660.0" y2="430"/>
  </g>
  <g font-size="12" fill="#555555" text-anchor="middle">
    <text x="90.0" y="448">10^-6</text>
    <text x="185.0" y="448">10^-5</text>
    <text x="280.0" y="448">10^-4</text>
    <text x="375.0" y="448">10^-3</text>
    <text x="470.0" y="448">10^-2</text>
    <text x="565.0" y="448">10^-1</text>
    <text x="660.0" y="448">10^0</text>
  </g>
  <line x1="90" y1="30" x2="90" y2="430" stroke="#1a1a1a" stroke-width="1.5"/>
  <line x1="90" y1="430" x2="660" y2="430" stroke="#1a1a1a" stroke-width="1.5"/>
  <text x="375.0" y="478" text-anchor="middle" font-size="13" fill="#1a1a1a">bump fraction h/S</text>
  <text x="18" y="230.0" text-anchor="middle" font-size="13" fill="#1a1a1a" transform="rotate(-90 18 230.0)">absolute error vs. analytic BSM</text>
  <path d="M90.0,243.8 L137.5,243.7 L185.0,243.8 L232.5,244.1 L280.0,244.2 L327.5,243.9 L375.0,242.9 L422.5,240.4 L470.0,237.4 L517.5,219.8 L565.0,171.1 L612.5,120.0 L660.0,101.8" fill="none" stroke="#2166ac" stroke-width="2"/>
  <circle cx="90.0" cy="243.8" r="3" fill="#2166ac"/>
  <circle cx="137.5" cy="243.7" r="3" fill="#2166ac"/>
  <circle cx="185.0" cy="243.8" r="3" fill="#2166ac"/>
  <circle cx="232.5" cy="244.1" r="3" fill="#2166ac"/>
  <circle cx="280.0" cy="244.2" r="3" fill="#2166ac"/>
  <circle cx="327.5" cy="243.9" r="3" fill="#2166ac"/>
  <circle cx="375.0" cy="242.9" r="3" fill="#2166ac"/>
  <circle cx="422.5" cy="240.4" r="3" fill="#2166ac"/>
  <circle cx="470.0" cy="237.4" r="3" fill="#2166ac"/>
  <circle cx="517.5" cy="219.8" r="3" fill="#2166ac"/>
  <circle cx="565.0" cy="171.1" r="3" fill="#2166ac"/>
  <circle cx="612.5" cy="120.0" r="3" fill="#2166ac"/>
  <circle cx="660.0" cy="101.8" r="3" fill="#2166ac"/>
  <path d="M90.0,150.4 L137.5,162.8 L185.0,168.8 L232.5,179.0 L280.0,195.0 L327.5,280.7 L375.0,266.5 L422.5,398.0 L470.0,279.6 L517.5,276.4 L565.0,283.0 L612.5,207.4 L660.0,166.5" fill="none" stroke="#b2182b" stroke-width="2"/>
  <circle cx="90.0" cy="150.4" r="3" fill="#b2182b"/>
  <circle cx="137.5" cy="162.8" r="3" fill="#b2182b"/>
  <circle cx="185.0" cy="168.8" r="3" fill="#b2182b"/>
  <circle cx="232.5" cy="179.0" r="3" fill="#b2182b"/>
  <circle cx="280.0" cy="195.0" r="3" fill="#b2182b"/>
  <circle cx="327.5" cy="280.7" r="3" fill="#b2182b"/>
  <circle cx="375.0" cy="266.5" r="3" fill="#b2182b"/>
  <circle cx="422.5" cy="398.0" r="3" fill="#b2182b"/>
  <circle cx="470.0" cy="279.6" r="3" fill="#b2182b"/>
  <circle cx="517.5" cy="276.4" r="3" fill="#b2182b"/>
  <circle cx="565.0" cy="283.0" r="3" fill="#b2182b"/>
  <circle cx="612.5" cy="207.4" r="3" fill="#b2182b"/>
  <circle cx="660.0" cy="166.5" r="3" fill="#b2182b"/>
  <circle cx="422.5" cy="398.0" r="6" fill="none" stroke="#b2182b" stroke-width="2"/>
  <text x="422.5" y="386.0" text-anchor="middle" font-size="11" fill="#b2182b">measured gamma optimum, h/S=3.16e-03</text>
  <line x1="470.0" y1="30" x2="470.0" y2="430" stroke="#1a1a1a" stroke-width="1.2" stroke-dasharray="4,3"/>
  <text x="470.0" y="24" text-anchor="middle" font-size="11" fill="#1a1a1a">chosen default h/S=0.01</text>
  <g font-size="12">
    <line x1="100" y1="44" x2="124" y2="44" stroke="#2166ac" stroke-width="2"/>
    <text x="130" y="48" fill="#1a1a1a">delta error</text>
    <line x1="240" y1="44" x2="264" y2="44" stroke="#b2182b" stroke-width="2"/>
    <text x="270" y="48" fill="#1a1a1a">gamma error</text>
  </g>
</svg>
